HIERARCHY
ROOT Hips
{
  OFFSET 196.326 95.9168 97.7182
  CHANNELS 6 Xposition Yposition Zposition Zrotation Xrotation Yrotation
  JOINT LeftUpLeg
  {
    OFFSET 8.64259 1.95398 -2.38835
    CHANNELS 3 Zrotation Xrotation Yrotation
    JOINT LeftLeg
    {
      OFFSET 43.7702 0 0
      CHANNELS 3 Zrotation Xrotation Yrotation
      JOINT LeftFoot
      {
        OFFSET 40.6238 0 0
        CHANNELS 3 Zrotation Xrotation Yrotation
        JOINT LeftToeBase
        {
          OFFSET 12.7242 0 0
          CHANNELS 3 Zrotation Xrotation Yrotation
          End Site
          {
            OFFSET 0 0 0
          }
        }
      }
    }
  }
  JOINT RightUpLeg
  {
    OFFSET -8.2249 1.95398 -2.59336
    CHANNELS 3 Zrotation Xrotation Yrotation
    JOINT RightLeg
    {
      OFFSET 43.5653 0 0
      CHANNELS 3 Zrotation Xrotation Yrotation
      JOINT RightFoot
      {
        OFFSET 40.6238 0 0
        CHANNELS 3 Zrotation Xrotation Yrotation
        JOINT RightToeBase
        {
          OFFSET 12.7242 0 0
          CHANNELS 3 Zrotation Xrotation Yrotation
          End Site
          {
            OFFSET 0 0 0
          }
        }
      }
    }
  }
  JOINT Spine
  {
    OFFSET 0.165834 0.87714 6.61349
    CHANNELS 3 Zrotation Xrotation Yrotation
    JOINT Spine1
    {
      OFFSET 7.38963 1.71661e-005 0
      CHANNELS 3 Zrotation Xrotation Yrotation
      JOINT Spine2
      {
        OFFSET 11.9445 1.14441e-005 0
        CHANNELS 3 Zrotation Xrotation Yrotation
        JOINT Spine3
        {
          OFFSET 14.7254 4.19617e-005 0
          CHANNELS 3 Zrotation Xrotation Yrotation
          JOINT Spine4
          {
            OFFSET 10.9679 0 0
            CHANNELS 3 Zrotation Xrotation Yrotation
            JOINT RightShoulder
            {
              OFFSET 2.46616 -1.6653 3.69651
              CHANNELS 3 Zrotation Xrotation Yrotation
              JOINT RightArm
              {
                OFFSET 13.0012 0 0
                CHANNELS 3 Zrotation Xrotation Yrotation
                JOINT RightForeArm
                {
                  OFFSET 28.7848 1.52588e-005 0
                  CHANNELS 3 Zrotation Xrotation Yrotation
                  JOINT RightHand
                  {
                    OFFSET 26.5688 1.52588e-005 0
                    CHANNELS 3 Zrotation Xrotation Yrotation
                    End Site
                    {
                      OFFSET 0 0 0
                    }
                  }
                }
              }
            }
            JOINT LeftShoulder
            {
              OFFSET 2.38034 -1.29275 -3.75231
              CHANNELS 3 Zrotation Xrotation Yrotation
              JOINT LeftArm
              {
                OFFSET 16.3182 6.10351e-005 0
                CHANNELS 3 Zrotation Xrotation Yrotation
                JOINT LeftForeArm
                {
                  OFFSET 27.0901 0 0
                  CHANNELS 3 Zrotation Xrotation Yrotation
                  JOINT LeftHand
                  {
                    OFFSET 24.5451 1.52588e-005 0
                    CHANNELS 3 Zrotation Xrotation Yrotation
                    End Site
                    {
                      OFFSET 0 0 0
                    }
                  }
                }
              }
            }
            JOINT Neck
            {
              OFFSET 5.0226 -0.0266342 0
              CHANNELS 3 Zrotation Xrotation Yrotation
              JOINT Head
              {
                OFFSET 6.69363 2.86102e-005 0
                CHANNELS 3 Zrotation Xrotation Yrotation
                End Site
                {
                  OFFSET 0 0 0
                }
              }
            }
          }
        }
      }
    }
  }
}
MOTION
Frames:	7
Frame Time:	0.0416667
-37.7393 87.6783 -40.3236 47.5028 -65.2394 31.4646 -173.853 6.6872 90.2611 -49.9 21.5982 -0.125294 41.1923 -9.05034 4.9594 47.3468 18.6812 -7.95576 171.411 44.6832 94.2912 -52.3461 29.5466 6.49462 81.9899 -6.15193 -2.64343 31.8816 -0.676281 24.3301 0.19329 7.43922 -89.5724 11.9942 0.586031 0.787569 0.323185 0.620114 0.761002 -22.2106 0.322241 0.92727 -2.19799 0.322248 0.927258 80.3565 -52.4869 -114.409 24.3692 -16.245 27.0696 -19.0667 -7.96263 -67.6012 -22.4427 -1.21708 1.81519 -96.7683 -40.8939 65.4986 -39.4645 9.27636 22.5542 12.6272 1.45447 -73.8754 26.2099 2.38844 5.32058 13.4796 -12.4027 10.4853 6.90454 -14.7108 0.253086 
-36.4576 86.4518 -33.1801 43.0662 -67.4482 28.7366 -174.403 16.0419 91.5015 -66.8215 22.1461 0.164062 41.4968 -8.62835 7.14759 46.6631 18.5698 -5.32718 172.509 38.6704 97.2629 -52.8644 32.1661 5.26351 87.7626 -7.87124 -2.98459 35.5222 0.320157 23.7272 0.373091 7.76658 -89.9409 11.3412 0.769977 0.0394696 -0.329486 0.770967 0.00552349 -22.8664 0.722512 0.26906 -2.85373 0.72252 0.269055 79.5106 -52.8633 -115.48 18.0869 -14.6568 17.2555 -21.8825 -7.8337 -69.4432 -26.5954 -1.17363 0.934535 -97.2075 -41.6122 65.0744 -41.7464 9.81668 24.0279 8.77528 3.01946 -63.2019 30.1064 2.82289 5.61573 15.5858 -11.6156 11.5818 8.04237 -14.3679 0.49876 
-35.4762 85.6685 -26.0756 33.8618 -68.5494 20.7732 -174.515 27.9394 92.204 -78.9574 19.3007 0.442185 42.1046 -7.65525 8.88176 44.935 16.594 -6.81544 173.309 32.227 98.8618 -49.4253 32.7796 4.70291 93.1732 -10.6815 -3.4125 37.636 0.907621 23.6098 0.675254 7.87516 -90.124 11.1262 1.28654 -0.371869 -0.544208 1.26892 -0.42814 -23.0845 1.33882 0.032052 -3.07183 1.33879 0.0320357 79.9491 -49.8032 -116.046 16.9841 -12.6967 8.33255 -26.4651 -5.93296 -74.0047 -29.398 -1.69146 2.7064 -97.2881 -41.4311 64.8747 -44.8456 11.0859 26.8771 6.92453 5.18436 -55.7289 32.0765 3.26829 6.43486 17.5021 -11.1247 12.1657 8.19443 -14.1636 0.944008 
-35.1151 85.6524 -18.3265 21.4041 -68.223 7.66919 -172.404 39.7988 90.7011 -83.3306 15.9872 0.295304 44.373 -6.07976 8.80414 42.123 14.0009 -5.79055 174.538 26.1442 97.2859 -44.4307 28.5214 3.93003 93.529 -10.8344 -3.41288 41.9891 2.10075 23.3216 1.19124 7.77093 -89.9535 11.3365 2.39221 -0.146763 -0.332252 2.38343 -0.251953 -22.8844 2.32566 0.579386 -2.87173 2.32567 0.57939 82.6123 -45.9003 -113.54 19.6337 -11.3269 1.31169 -28.5235 -1.23288 -81.4071 -29.3775 -1.7337 2.88175 -96.7303 -40.8034 65.5255 -47.4081 13.3615 31.9653 8.30501 7.68792 -55.6976 29.2755 2.93526 6.25775 19.0096 -10.9659 12.3274 6.80653 -14.1178 1.67631 
-35.0854 86.7864 -9.63789 11.1526 -68.549 -3.49817 -169.8 46.9302 88.3736 -79.3357 15.487 -0.367371 47.741 -4.57653 8.85914 41.716 14.1165 -1.74361 175.805 17.8958 94.3982 -37.5174 21.1103 2.50443 85.7209 -8.41273 -3.20638 48.4098 3.7263 22.6898 1.69068 7.71104 -89.6409 11.4508 3.53167 0.357227 -0.215329 3.54397 0.201244 -22.7842 3.26087 1.40321 -2.77154 3.26087 1.40322 84.1097 -44.005 -111.895 22.014 -12.112 -3.05803 -31.8848 3.63358 -87.481 -29.1838 -1.95783 3.92223 -95.5866 -39.2677 66.8031 -50.5338 14.516 38.8981 8.95861 6.56183 -60.2506 27.1681 2.25001 4.50073 18.367 -12.4278 11.0505 6.48314 -15.1528 1.15431 
-35.0121 88.6463 -0.205294 6.60768 -68.0025 -8.65631 -168.984 51.2116 85.9888 -68.3314 15.0925 -1.36461 50.8737 -3.58436 7.78779 42.6056 15.1868 -0.912585 176.515 10.5856 91.5064 -29.7822 11.8824 0.778803 69.993 -4.19077 -2.19026 52.7877 5.02241 22.9154 1.94377 7.58658 -89.369 11.6914 4.16222 0.821884 0.0269756 4.19436 0.637577 -22.551 3.72256 2.03634 -2.5384 3.72258 2.03635 85.2749 -41.2607 -111.032 24.8681 -14.2576 -5.20615 -34.6785 8.24982 -92.778 -28.8486 -2.09414 4.67929 -94.2056 -37.3246 68.3857 -53.1811 14.4564 43.7658 8.85016 4.7261 -64.0941 26.3607 2.08978 4.12691 19.2071 -13.1911 10.1534 4.62958 -15.7721 0.326592 
-34.4697 90.0676 9.46178 6.65174 -66.7832 -9.22688 -168.848 53.8236 83.3886 -52.87 15.6086 -2.97582 51.7761 -4.45178 5.24807 45.1681 18.3314 1.0759 175.933 5.64909 88.5755 -23.7261 5.86242 -0.0835823 50.2481 0.516435 0.73917 44.7204 3.38716 29.9878 2.02156 7.40023 -89.1818 12.057 4.40531 1.15002 0.393171 4.45164 0.954654 -22.1864 3.85583 2.42241 -2.17379 3.85583 2.42242 85.1717 -39.1915 -112.014 27.8531 -16.4944 -3.44492 -36.6459 12.5793 -98.3969 -29.7715 -2.46102 5.97549 -94.927 -35.9879 66.6384 -54.3885 12.1912 46.4382 8.85589 3.18709 -66.763 26.5343 1.85086 3.15193 20.5463 -13.4689 10.7501 2.63968 -16.4075 -0.774821 
